<svg version="1.1" xmlns="http://www.w3.org/2000/svg" xmlns:xlink="http://www.w3.org/1999/xlink" width="118.56185" height="150.67446" viewBox="0,0,118.56185,150.67446"><g transform="translate(-180.09407,-104.66278)"><g data-paper-data="{&quot;isPaintingLayer&quot;:true}" fill-rule="nonzero" stroke-linejoin="miter" stroke-miterlimit="10" stroke-dasharray="" stroke-dashoffset="0" style="mix-blend-mode: normal"><path d="M181.34407,173.74105c0,-29.70043 24.07695,-53.77739 53.77739,-53.77739c29.70043,0 53.77739,24.07695 53.77739,53.77739c0,29.70043 -24.07695,53.77739 -53.77739,53.77739c-29.70043,0 -53.77739,-24.07695 -53.77739,-53.77739z" fill="#2d0000" stroke="#2d0000" stroke-width="2.5" stroke-linecap="butt"/><path d="M220.79195,163.81968c0,-17.91897 14.52619,-32.44515 32.44515,-32.44515c17.91897,0 32.44515,14.52619 32.44515,32.44515c0,17.91897 -14.52619,32.44515 -32.44515,32.44515c-17.91897,0 -32.44515,-14.52619 -32.44515,-32.44515z" fill="#ffc5c5" stroke="#2d0000" stroke-width="2.5" stroke-linecap="butt"/><path d="M224.62382,238.60336v-13.16129h3.09677v13.16129z" fill="#2d0000" stroke="#2d0000" stroke-width="2.5" stroke-linecap="butt"/><path d="M237.01091,234.92595v-13.16129h3.09677v13.16129z" fill="#2d0000" stroke="#2d0000" stroke-width="2.5" stroke-linecap="butt"/><g stroke="#2d0000"><path d="M234.10769,250.40982l-0.19355,-15.96774l9.29324,0.03812l-0.10044,5.44267c0,0 9.0085,3.21363 9.58139,3.61598c2.75772,1.93678 3.29032,6.87097 3.29032,6.87097z" fill="#ffffff" stroke-width="2.5" stroke-linecap="butt"/><path d="M247.07543,242.08724h-12.3871" fill="none" stroke-width="1" stroke-linecap="round"/><path d="M252.49478,244.21627l-17.6129,-0.19355" fill="none" stroke-width="1" stroke-linecap="round"/></g><g stroke="#2d0000"><path d="M221.52704,254.08723l-0.19355,-15.96774l9.29325,0.03812l-0.10044,5.44268c0,0 9.0085,3.21363 9.58139,3.61597c2.75772,1.93678 3.29032,6.87097 3.29032,6.87097z" fill="#ffffff" stroke-width="2.5" stroke-linecap="butt"/><path d="M222.10769,245.76465h12.3871" fill="none" stroke-width="1" stroke-linecap="round"/><path d="M239.91414,247.89369l-17.6129,-0.19355" fill="none" stroke-width="1" stroke-linecap="round"/></g><path d="M200.23853,124.86748l3.32876,-3.69862l6.23604,5.61244l-3.32876,3.69862z" fill="#2d0000" stroke="#2d0000" stroke-width="2.5" stroke-linecap="butt"/><path d="M191.8689,107.55687c4.97191,-3.13761 11.54598,-1.65062 14.68359,3.32129c3.13761,4.97191 1.65062,11.54598 -3.32129,14.68359c-4.97191,3.13761 -11.54598,1.65062 -14.68359,-3.32129c-3.13761,-4.97191 -1.65062,-11.54598 3.32129,-14.68359z" fill="#2d0000" stroke="#2d0000" stroke-width="2.5" stroke-linecap="butt"/><path d="M242.06619,157.10769c0,-11.17041 9.0554,-20.22581 20.22581,-20.22581c11.17041,0 20.22581,9.0554 20.22581,20.22581c0,11.17041 -9.0554,20.22581 -20.22581,20.22581c-11.17041,0 -20.22581,-9.0554 -20.22581,-20.22581z" fill="#2d0000" stroke="#2d0000" stroke-width="2.5" stroke-linecap="butt"/><path d="M279.09348,156.77436c0,10.13116 -7.58117,18.34408 -16.933,18.34408c-9.35184,0 -16.933,-8.21292 -16.933,-18.34408c0,-10.13116 7.58117,-18.34408 16.933,-18.34408c9.35184,0 16.933,8.21292 16.933,18.34408z" fill="#ffffff" stroke="none" stroke-width="0" stroke-linecap="butt"/><path d="M272.45328,157.74087c0,6.17541 -4.61093,11.18157 -10.29881,11.18157c-5.68788,0 -10.29881,-5.00616 -10.29881,-11.18157c0,-6.17541 4.61093,-11.18157 10.29881,-11.18157c5.68788,0 10.29881,5.00616 10.29881,11.18157z" fill="#9cffff" stroke="none" stroke-width="0" stroke-linecap="butt"/><path d="M268.58232,157.86173c0,4.53185 -2.67185,8.20565 -5.96774,8.20565c-3.29589,0 -5.96774,-3.6738 -5.96774,-8.20565c0,-4.53185 2.67185,-8.20565 5.96774,-8.20565c3.29589,0 5.96774,3.6738 5.96774,8.20565z" fill="#2d0000" stroke="#2d0000" stroke-width="2.5" stroke-linecap="butt"/><path d="M257.1307,153.15608c0,-1.80828 1.4659,-3.2742 3.2742,-3.2742c1.80828,0 3.2742,1.4659 3.2742,3.2742c0,1.80828 -1.4659,3.2742 -3.2742,3.2742c-1.80828,0 -3.2742,-1.4659 -3.2742,-3.2742z" fill="#ffffff" stroke="none" stroke-width="0" stroke-linecap="butt"/><path d="M260.5954,196.12154c6.8495,-0.51974 12.90704,4.95185 13.52989,12.22114c0.31436,3.66889 29.6385,-20.09545 23.74928,-3.88681c-3.33423,9.17666 -31.63113,17.73268 -35.02362,17.9901c-6.8495,0.51974 -12.90704,-4.95185 -13.52989,-12.22114c-0.62285,-7.26929 4.42484,-13.58355 11.27434,-14.10329z" fill="#423333" stroke="none" stroke-width="0" stroke-linecap="butt"/></g></g></svg>