<svg version="1.1" xmlns="http://www.w3.org/2000/svg" xmlns:xlink="http://www.w3.org/1999/xlink" width="558.57838" height="377.94147" viewBox="0,0,558.57838,377.94147"><g transform="translate(69.33306,4.99998)"><g data-paper-data="{&quot;isPaintingLayer&quot;:true}" fill-rule="nonzero" stroke-linejoin="miter" stroke-miterlimit="10" stroke-dasharray="" stroke-dashoffset="0" style="mix-blend-mode: normal"><path d="M-1.19055,240.9256c0.29709,-1.62034 0.56724,-3.24961 0.78258,-4.89666c0.25927,-1.98313 -0.31617,-4.02515 0,-6c0.21727,-1.35709 0.84088,-2.63487 1,-4c0.46033,-3.94914 0.07493,-8.2334 0.07493,-12.22183c0,-8.33334 0,-16.66666 0,-25c0,-15.9808 0.415,-32.02527 0,-48c-0.04592,-1.76749 0.16943,-3.58427 -0.26751,-5.29753c-0.29914,-1.17295 -0.96739,-2.2236 -1.58999,-3.28606v-1.01956c0.13297,-0.30543 0.20671,-0.6426 0.20671,-0.99698c0,-0.08437 -0.00418,-0.16778 -0.01234,-0.25c0.00816,-0.08222 0.01234,-0.16563 0.01234,-0.25c0,-0.08437 -0.00418,-0.16778 -0.01234,-0.25c0.00816,-0.08222 0.01234,-0.16563 0.01234,-0.25c0,-0.35438 -0.07374,-0.69154 -0.20671,-0.99698v-0.00605c0.13297,-0.30544 0.20671,-0.64259 0.20671,-0.99698c0,-0.35438 -0.07374,-0.69155 -0.20671,-0.99698v-38.00604c0.13297,-0.30544 0.20671,-0.64259 0.20671,-0.99697c0,-0.1529 -0.01372,-0.30259 -0.04002,-0.44792c0.3381,-0.42638 0.54002,-0.96565 0.54002,-1.55208c0,-0.67727 -0.26932,-1.29165 -0.70671,-1.74187v-0.51073c0.46777,-1.07126 0.53636,-2.38281 0.72838,-3.54546c1.05269,-6.37407 0.07026,-14.12968 -0.63208,-20.42865l-0.0963,-0.04737v-1.06679c1.0479,-2.1303 1.76455,-5.17493 0,-8.4172v-3.58414c0.5512,-1.24008 0.8575,-2.6131 0.8575,-4.05766c0,-1.44456 -0.3063,-2.81759 -0.8575,-4.05767v-16.88466c0.5512,-1.24008 0.8575,-2.6131 0.8575,-4.05766c0,-1.44457 -0.3063,-2.81759 -0.8575,-4.05767v-17.74943h481.66334v5.66649c-0.55986,0.70522 -1.1349,1.40954 -1.37676,2.24278c-0.52582,1.81155 -0.42908,7.5903 -0.42908,9.89785c0,7.26387 -0.56053,14.76378 0,22c0.17683,2.28287 0.023,4.65938 0.7612,6.82683c0.21326,0.62614 0.59865,1.16032 1.04464,1.66058v124.25984c-0.10977,0.63437 -0.26791,1.27508 -0.49331,1.92583c-0.70585,2.18329 -1.10651,4.49612 -1.12829,6.79057v3c0,1.0716 0.67422,1.98572 1.6216,2.34132v1.92646c-0.35701,0.37021 -0.6216,0.91893 -0.6216,1.73222c0,0.8133 0.26458,1.36201 0.6216,1.73222v91.93608h-481.37437c-0.05592,-2.14647 0.21562,-4.20404 0.40922,-6.52587c0.26077,-3.12728 -0.31972,-6.34673 -0.69818,-9.55499v-9.60725c0.3366,-3.82395 0.76999,-7.63978 0.17269,-11.45496c0,0 -0.04057,-0.24341 -0.17269,-0.56453z" fill="#64be96" stroke="none" stroke-width="1" stroke-linecap="butt"/><path d="" fill="#008264" stroke="none" stroke-width="1" stroke-linecap="butt"/><path d="M486.85119,140.27075c0,-0.09986 0.00041,-0.42397 0.00069,-0.87703c0.11658,2.04439 0.24058,4.10347 0.24133,6.12313c-0.01957,0.07493 -0.03929,0.14982 -0.05914,0.22473c-0.08733,-1.86862 -0.18288,-3.71465 -0.18288,-5.47083z" fill="#008264" stroke="none" stroke-width="1" stroke-linecap="butt"/><path d="M486.63884,131.35608c0.01703,0.3288 0.03015,0.65666 0.03265,0.98217c-0.04271,-0.10618 -0.0925,-0.20876 -0.14879,-0.30714c0.02787,-0.23969 0.06594,-0.46586 0.11614,-0.67503z" fill="#008264" stroke="none" stroke-width="1" stroke-linecap="butt"/><path d="M485.86126,122.65839c-0.00193,-0.13011 -0.00522,-0.25935 -0.01006,-0.38764c-0.0024,-0.06356 -0.00816,-0.12748 -0.01643,-0.19162c0.11773,-0.00255 0.23507,-0.00507 0.35201,-0.00757c-0.10474,0.19737 -0.21354,0.39285 -0.32552,0.58683z" fill="#008264" stroke="none" stroke-width="1" stroke-linecap="butt"/><path d="M214.85105,186.2604l-214.17694,-1.24432c0.05326,-14.726 0.37502,-29.49707 -0.00716,-44.20897c-0.04592,-1.76749 0.16943,-3.58427 -0.26751,-5.29753c-0.34724,-1.36155 -1.19183,-2.55831 -1.88504,-3.80002c0.31502,-0.41827 0.50176,-0.93862 0.50176,-1.50258c0,-0.08437 -0.00418,-0.16778 -0.01234,-0.25c0.00816,-0.08222 0.01234,-0.16563 0.01234,-0.25c0,-0.08437 -0.00418,-0.16778 -0.01234,-0.25c0.00816,-0.08222 0.01234,-0.16563 0.01234,-0.25c0,-0.35555 -0.07423,-0.69377 -0.20802,-1c0.1338,-0.30623 0.20803,-0.64445 0.20803,-1c0,-0.04106 -0.00099,-0.0819 -0.00295,-0.12248c86.60256,18.71241 199.59675,53.18349 215.83786,59.1759z" fill="#281446" stroke="none" stroke-width="1" stroke-linecap="butt"/><path d="M262.01682,185.81767l-15.41889,30.64298l-245.77993,4.97434c-0.00218,-2.55592 -0.15105,-5.14904 -0.15105,-7.62789c0,-8.33334 0,-16.66666 0,-25c0,-15.85324 0.40839,-31.76915 0.00978,-47.61746c72.59001,10.00491 196.114,28.52748 228.84944,36.52306c5.39543,1.31639 25.46597,6.30451 32.49065,8.10495z" fill="#006482" stroke="none" stroke-width="1" stroke-linecap="butt"/><path d="" fill="#00a0dc" stroke="none" stroke-width="1" stroke-linecap="butt"/><path d="M375.73411,120.46446l-6.73544,-50.05237l11.21589,-5.11799c0,0 20.63723,42.37835 22.88041,51.58128c2.24318,9.20293 -2.01886,9.20293 -2.01886,9.20293z" fill="#fab414" stroke="none" stroke-width="1" stroke-linecap="butt"/><path d="M341.6142,88.36341l-10.77316,35.2415l-10.32452,5.83817c-6.08609,-10.54884 16.71167,-66.19145 16.71167,-66.19145z" fill="#fab414" stroke="none" stroke-width="1" stroke-linecap="butt"/><path d="M363.9043,78.11563l20.56049,-1.41084c2.2963,2.8512 46.91193,125.58252 46.91193,129.27786l-67.47242,15.047z" fill="#8c8264" stroke="none" stroke-width="1" stroke-linecap="butt"/><path d="M400.79867,214.59527l-108.61702,22.43178c0.13577,-0.55489 39.78688,-151.31413 41.70539,-156.83353l37.98644,-8.45324z" fill="#aaa082" stroke="none" stroke-width="1" stroke-linecap="butt"/><path d="M472.90502,48.7123c-5.46037,0.53718 -11.2336,-0.01181 -16.32797,2.44388c-4.9468,2.37895 -6.49341,8.02231 -12.48505,8.61262c-6.12151,0.63753 -9.03174,-3.68353 -14.03757,-6.00935c-4.36239,-2.01886 -10.42487,-1.706 -12.74479,3.09322c-2.31992,4.79922 -2.24908,10.43668 -9.40364,9.92311c-5.43675,-0.3896 -8.73659,-5.99165 -11.38117,-10.07659c-1.47577,-2.2845 -2.41437,-4.16759 -5.08847,-5.02944c-2.52341,-0.72763 -5.21396,-0.62415 -7.67403,0.29515c-5.18882,1.98344 -5.98574,9.96443 -6.44618,14.68691l-36.88846,-0.88546c-5.74372,-4.83464 -12.001,-13.59484 -11.21589,-21.67028c0.78511,-8.07544 6.73544,-11.75307 14.69281,-10.18285c2.90432,0.5726 6.18054,1.81225 9.13209,0.73198c3.51825,-1.30458 4.07314,-5.06486 4.22072,-8.3883c0.14758,-3.21719 -0.1889,-6.092 1.43445,-9.04355c1.69419,-3.08142 5.12979,-5.43675 8.50637,-6.27499c3.49464,-0.89137 7.10143,0.59031 10.2891,1.9008c3.0578,1.32229 5.03534,4.0082 7.95147,5.45446c6.83579,3.40609 12.86876,-2.39666 17.53811,-6.49341c5.7142,-5.00583 12.53228,-9.04945 20.41292,-8.78971c8.10495,0.25383 15.26541,0.64344 23.02799,-1.85357c4.45684,-1.42855 8.47095,-2.57965 13.19342,-2.57965c4.53542,0.02209 9.06685,0.2723 13.57713,0.74969c2.62993,0.28029 5.26958,0.44912 7.91187,0.50628c-0.68809,1.00867 -1.66803,1.9178 -2.00422,3.07602c-0.52582,1.81155 -0.42908,7.5903 -0.42908,9.89785c0,7.26387 -0.56053,14.76378 0,22c0.17683,2.28287 0.023,4.65938 0.7612,6.82683c0.40526,1.18991 1.43219,2.0477 2.31532,2.97174c-0.36654,1.45393 -0.35526,3.28679 -0.26968,5.07662c-2.87038,-0.31941 -5.7377,-0.70324 -8.56878,-0.97z" fill="#aadcdc" stroke="none" stroke-width="1" stroke-linecap="butt"/><path d="M333.07241,126.09602c-5.40134,-1.72961 -2.63278,-12.13087 -1.57613,-15.93837c1.53481,-5.51349 4.32107,-11.51104 0.68476,-16.5818l-2.77446,-1.00353c-0.04723,-2.74494 1.21013,-5.51349 1.83586,-8.14628c0.59031,-2.36124 1.06256,-4.77561 1.58793,-7.16046c1.00943,-4.63393 1.77093,-9.84047 3.98459,-14.01986c7.72716,-0.79102 15.30674,0.29515 23.02209,0.55489c6.76495,0.22432 13.65977,0.59031 20.37159,1.48758c3.96688,7.08372 6.75315,14.58656 9.67518,22.18384c0.9563,2.4852 4.22071,8.26434 1.77093,10.62558c-2.74494,2.64459 -6.49341,-1.06846 -8.01641,-3.18767c-2.75675,-3.77208 -8.71297,-15.30083 -14.21466,-8.11086c-4.72248,6.19235 1.46987,16.02691 -2.71543,22.93944c-5.62565,5.49578 -8.26434,-6.03297 -9.15571,-9.44496c-1.47577,-5.62565 -6.58786,-7.29033 -10.79677,-3.15816c-4.20891,4.13217 -4.25023,11.45201 -5.85587,17.00683c-1.23375,4.1971 -2.92203,11.35756 -7.82751,11.95377z" fill="#fab414" stroke="none" stroke-width="1" stroke-linecap="butt"/><path d="M213.49924,212.25174c6.32812,-9.60434 12.68576,-18.60657 16.58771,-20.66085c8.21711,-4.33878 42.70302,-11.68223 53.08066,-13.12849c2.16053,-0.67295 25.37152,0.40731 26.4813,0.54309c0.00414,0.01946 0.00414,0.03957 0,0.05903c1.86538,0.11216 3.72486,0.29516 5.57843,0.51357c0.87366,0.47225 67.93286,10.54293 68.91277,10.72003c0.12987,0.09445 1.00943,9.68108 1.9008,21.93592z" fill="#005a5a" stroke="none" stroke-width="1" stroke-linecap="butt"/><path d="M40.73916,168.52749l0.10035,-0.06493c1.21014,0 46.35703,0 83.10382,3.68353c58.21636,5.84997 119.24259,16.78251 132.26483,20.33027c21.27477,5.79094 70.39445,42.57315 86.74013,50.45379l-344.02924,-2.60987c0.25388,-1.42077 0.48443,-2.84925 0.67297,-4.29134c0.25927,-1.98313 -0.31617,-4.02515 0,-6c0.21727,-1.35709 0.84088,-2.63487 1,-4c0.46033,-3.94914 0.07493,-8.2334 0.07493,-12.22183c0,-8.33334 0,-16.66666 0,-25c0,-6.8941 0.07724,-13.80005 0.13175,-20.70714c18.34544,0.17398 37.27552,0.36091 39.94047,0.42753z" fill="#008264" stroke="none" stroke-width="1" stroke-linecap="butt"/><path d="M127.131,78.77087c-1.57022,4.9586 -5.82046,6.92433 -10.62558,7.77438c-6.71383,1.18575 -67.8564,1.76563 -118.01818,2.1997c0.33141,-0.42414 0.52891,-0.95798 0.52891,-1.53796c0,-0.1529 -0.01372,-0.30259 -0.04002,-0.44792c0.3381,-0.42638 0.54002,-0.96565 0.54002,-1.55208c0,-0.76223 -0.34112,-1.44478 -0.87902,-1.90333c0.6263,-1.12583 0.68724,-2.60228 0.90069,-3.89473c1.05269,-6.37407 0.07026,-14.12968 -0.63208,-20.42865l-0.55208,-0.27161c1.43959,-2.43608 2.82957,-6.61537 -0.66833,-10.92511c1.24471,-1.66727 1.98162,-3.73579 1.98162,-5.97644c0,-2.559 -0.9612,-4.8935 -2.54227,-6.66215c0.97685,-1.54455 1.54227,-3.37517 1.54227,-5.33785c0,-2.21494 -0.7201,-4.26168 -1.93898,-5.91889c1.81555,-1.81043 2.93898,-4.31457 2.93898,-7.08111c0,-1.39446 -0.28541,-2.72225 -0.80102,-3.92815c7.94209,0.01217 13.48603,0.02513 13.92797,0.02513c4.0082,0.08264 9.11438,-0.08855 12.80382,1.68238c3.99049,1.92441 2.71543,5.07076 0.97401,8.21121c-2.40256,4.30336 -2.59736,7.24901 -0.63163,11.70584c4.48045,0.99172 9.38593,0 13.92541,-0.13577c4.53948,-0.13577 9.07306,-0.08264 13.61255,-0.27154c8.61852,-0.34828 17.17802,0.42502 25.77293,0.66705c4.17349,0.11806 9.7224,0.62573 13.524,2.53833c3.26441,1.62926 3.96098,5.82636 3.26441,9.10848c-0.9622,4.49226 -3.6245,5.38953 -7.19588,7.75077c-1.54071,1.02714 -2.6623,2.12512 -3.0519,4.0082c-0.53718,2.56194 0.74969,3.34115 2.57965,4.82873c2.90433,0.55489 5.53711,1.37542 8.52408,1.43445c2.82758,0.05313 5.62565,0.11806 8.44733,0.29516c5.36001,0.33057 11.15095,0.02361 16.18039,2.25498c4.25613,1.88309 7.00698,7.21949 5.60794,11.78849z" fill="#aadcdc" stroke="none" stroke-width="1" stroke-linecap="butt"/><path d="M337.08652,205.43957c-2.11921,4.64574 -117.51299,1.95393 -117.51299,1.95393c1.92441,-1.23375 36.55199,-14.97616 41.86478,-16.78251c28.42932,-9.63386 66.82308,9.74602 75.64821,14.82858z" fill="#00a0b4" stroke="none" stroke-width="1" stroke-linecap="butt"/><path d="M317.84832,202.49392c0,0 11.59369,-18.37044 18.76005,-21.62305c7.16636,-3.25261 10.4839,-1.58203 12.39651,-1.43445c8.50637,0.64344 21.84147,20.33027 22.6679,21.88279c-2.30221,2.02476 -53.82445,1.17472 -53.82445,1.17472z" fill="#f0e6d2" stroke="none" stroke-width="1" stroke-linecap="butt"/><path d="" fill="#005a5a" stroke="none" stroke-width="1" stroke-linecap="butt"/><path d="M144.50381,219.90806h-143.70217c-0.03911,-2.05507 -0.1347,-4.1147 -0.1347,-6.10095c0,-8.33334 0,-16.66666 0,-25c0,-1.36079 0.00301,-2.72206 0.00826,-4.0837c32.89256,2.32744 119.13934,13.70363 143.82861,35.18465z" fill="#281446" stroke="none" stroke-width="1" stroke-linecap="butt"/><path d="" fill="#281446" stroke="none" stroke-width="1" stroke-linecap="butt"/><path d="M35.98717,230.82289c-0.62917,2.47579 -19.18485,2.86772 -36.38173,2.69371c-0.07969,-1.16875 -0.19722,-2.33956 -0.01342,-3.48767c0.21727,-1.35709 0.84088,-2.63487 1,-4c0.46033,-3.94914 0.07493,-8.2334 0.07493,-12.22183c0,-7.54735 0,-15.09469 0,-22.64204c14.61227,2.74958 31.08301,35.27818 35.32023,39.65783z" fill="#00a0b4" stroke="none" stroke-width="1" stroke-linecap="butt"/><path d="" fill="#00a0b4" stroke="none" stroke-width="1" stroke-linecap="butt"/><path d="M480.88348,191.87029c-0.86325,6.18865 -0.03228,13.14128 -0.03228,19.40046c0,7.62652 0,15.25303 0,22.87955l-300.12005,1.10582c16.34568,-3.86653 65.46536,-34.91683 86.74013,-37.75622c21.27477,-2.83939 113.97113,-8.9491 142.1171,-10.38355c5.13491,-0.44285 57.033,-1.21057 70.29591,-1.36966c0.11561,0.79257 0.51893,1.27479 0.96692,1.56818c0,1.38708 0,2.7382 0,3.95588c0,0.1677 0.01651,0.33154 0.048,0.48999c-0.00538,0.03651 -0.01062,0.07302 -0.01572,0.10955z" fill="#281446" stroke="none" stroke-width="1" stroke-linecap="butt"/><path d="M420.8692,235.70475l-58.75354,3.48283c0,0 5.73781,-44.42672 28.88386,-46.82338c23.14605,-2.39076 28.34668,41.49288 29.86968,43.34055z" fill="#00a08c" stroke="none" stroke-width="1" stroke-linecap="butt"/><path d="M448.24186,197.18113c6.97156,-0.71427 4.89957,10.92664 -1.97163,9.34461c-6.32222,-1.45216 -3.63631,-9.49218 1.97163,-9.34461z" fill="#008264" stroke="none" stroke-width="1" stroke-linecap="butt"/><path d="M145.2299,194.52474c5.98574,2.60327 1.62926,7.56187 -2.49111,9.39183c-4.92909,2.18415 -10.74954,1.41674 -15.90295,0.54899c-1.80635,-0.30106 -5.31279,-1.00943 -4.98812,-3.47692c0.32467,-2.4675 3.65992,-3.45922 5.60204,-4.1853c5.29508,-1.97164 12.1899,-4.31517 17.78013,-2.2786z" fill="#f0e6d2" stroke="none" stroke-width="1" stroke-linecap="butt"/><path d="M49.765,204.12908c0.02361,-0.11806 0.07084,-0.23022 0.07084,-0.34828c4.10265,0.06493 8.11086,-0.04132 12.20171,-0.31286c0.03542,0.10626 0.03542,0.21251 0.03542,0.32467c22.296,-0.60802 40.0053,-1.05075 41.77623,-1.05075c5.25376,-0.05903 10.57835,-0.36599 15.8085,-0.84414c10.76135,-0.97992 21.58173,-1.25736 32.33717,-2.21366c10.8499,-0.96811 21.87098,-0.88547 32.78581,-1.29278c5.92081,-0.22432 45.58963,0.40731 50.81387,0.69657c1.31639,0.07674 57.17741,0.20661 59.79249,-0.12396c5.59023,-0.69066 11.21589,-0.98582 16.83564,-1.28097c11.06241,-0.58441 21.96543,-1.32229 33.05735,-1.28688c10.80857,0.03542 21.58173,-0.15938 32.39621,0.23022c11.66452,0.42502 52.30736,5.40133 60.51857,6.092c4.17738,0.354 8.37004,0.49585 12.56179,0.42502c3.88424,-0.06493 7.57368,-0.89137 11.48743,-0.89137c0.02022,0.01517 9.80615,-0.66721 18.28549,-1.20085c0.09269,3.4571 0.32167,6.93394 0.32167,10.21968c0,14.66666 0,29.33334 0,44c0,3.66666 0,9.33334 0,13c0,0 0,0.48375 0.2128,1.02567c-0.00002,0.01502 -0.00004,0.03004 -0.00004,0.04507c0,1.66667 0,4.33333 0,6c0,0 0,0.46846 0.20279,0.99981c-0.1204,0.97983 -0.1967,1.96757 -0.20263,2.96852c-0.61021,2.09972 -1.11731,4.36644 -1.45353,6.05108c-0.85168,4.26739 -0.54663,8.65566 -0.54663,12.98059c0,6.33333 0,12.66667 0,19c0,0.43959 0,0.87918 0,1.31877c-0.32957,3.43815 -0.20678,7.09105 -0.09731,10.56566c-0.11448,1.04894 -0.24991,2.10152 0.08245,3.07306c0.00931,0.52195 0.01486,1.03661 0.01486,1.54251v3.5c0,0.91897 0.49584,1.72214 1.23459,2.15655c0.12568,2.2681 0.25662,4.53489 0.26541,6.84345c0.00359,0.94342 -0.06863,2.35344 0.02152,3.80483c-0.2467,0.85757 -0.44355,1.72041 -0.45114,2.60614c-0.00029,0.03438 -0.00036,0.06873 -0.0002,0.10306l-0.02163,-0.00432l-0.48987,2.44938c-0.03842,0.17418 -0.05867,0.35518 -0.05867,0.54091c0,0.81791 0.39277,1.54408 1,2.00018c0.0001,1.38063 1.11935,2.49982 2.5,2.49982c0.58947,0 1.1313,-0.20402 1.55872,-0.5453v0.62738c-0.33647,1.24417 -0.71031,2.52742 -1.02643,4.01746c-0.18361,0.86546 -0.11719,1.77472 -0.02011,2.65411c0.00684,0.06189 0.03777,0.12456 0.08059,0.18674c-0.19072,0.00057 -0.38036,0.00525 -0.568,0.01815c-0.91909,-0.24431 -1.87126,-0.3656 -2.81856,-0.45002c-2.85724,-0.25463 -5.83619,-0.00852 -8.7062,-0.00852c0,0 -0.82112,0 -1.52219,0.47059c-1.16438,-0.69498 -2.17872,-1.70694 -3.47697,-2.0759c-1.76515,-0.50164 -6.52928,-0.42908 -8.89784,-0.42908c-6.33333,0 -12.66667,0 -19,0c-8,0 -16,0 -24,0c-4.68923,0 -9.9626,-0.55995 -14.60182,0.12913c-2.3661,0.35145 -4.73224,0.97182 -7.09882,1.47258c-0.27056,-1.08833 -1.25423,-1.89486 -2.42627,-1.89486v0c-9.5,0 -22,0 -31.5,0c-3.71234,0 -8.41077,-0.8057 -12.00266,0.05106c-1.13027,0.2696 -2.0941,1.03771 -3.19211,1.40822c-5.20139,-0.17622 -11.05751,-0.83151 -16.0302,-0.08809c-1.29471,-0.50993 -2.56378,-1.11969 -3.92827,-1.34703c-2.79634,-0.46591 -6.00726,-0.02416 -8.84676,-0.02416c-7.16667,0 -14.33333,0 -21.5,0c-3.74626,0 -7.47969,-0.1594 -10.94741,0.5h-1.05259v0.08027c-0.13218,-0.02141 -0.26561,-0.03761 -0.40045,-0.04799c-1.14041,-0.0878 -2.20078,0.47473 -3.26796,0.98192c-0.13912,0.02459 -0.27772,0.05056 -0.41559,0.07851l-2.36951,-1.63689c-2.77024,-0.108 -5.51924,-0.12829 -8.29057,-0.12829c-2.70997,0 -6.21093,-0.4423 -8.90046,0.03229c-3.54272,0.62514 -6.12979,1.86199 -9.8532,1.47988c-3.3423,-0.34299 -6.65446,-1.19364 -10,-1.5c-4.48083,-0.41033 -9.2446,-0.04354 -13.74634,-0.01217c-2.10316,0.01466 -4.19924,0.4947 -6.21237,1.10364c-0.5837,0.17656 -1.26576,0.13005 -1.87464,0.22803c-0.82966,-0.37811 -1.64144,-0.81563 -2.48451,-1.15286c0,0 -2.3212,-0.92848 -3.24967,1.39271c-0.01879,0.04696 -0.03624,0.09334 -0.0524,0.13916c-2.89386,-0.6593 -5.79246,-1.33243 -8.70509,-1.53193c-4.27943,-0.29312 -8.65235,-0.21136 -13.00207,-0.11596c-2.26323,-0.21612 -4.56322,-0.1845 -6.8141,0.10924c-0.12042,0.00029 -0.24077,0.00043 -0.36105,0.00043c-3.2106,0 -6.4212,0 -9.6318,0c-2.57629,-0.77895 -5.4689,-1.71333 -8.12186,-1.98783c-5.28396,-0.54674 -10.9354,-0.01217 -16.24634,-0.01217c-14.83334,0 -29.66666,0 -44.5,0c-3.83264,0 -7.66768,-0.04534 -11.5,0c-1.55597,0.01841 -3.27481,-0.60372 -4.66733,0.09071c-0.2009,0.10019 -0.39217,0.21359 -0.57542,0.33803l-0.04349,-0.07248l-2.46071,1.47643c-0.05816,0.03353 -0.11484,0.06934 -0.16993,0.1073c-1.01931,-0.27731 -2.03302,-0.60274 -3.62408,-0.89749c-6.54777,-1.21299 -15.55412,-1.53629 -22.15325,0.2602c-0.69741,-0.45968 -1.50579,-0.45968 -1.50579,-0.45968c-2,0 -7,0 -9,0c-7.33333,0 -14.66667,0 -22,0c-2,0 -4.00142,-0.07542 -6,0c-0.68356,0.0258 -1.41893,0.46975 -2.04329,0.1903c-0.86054,-0.38516 -1.11512,-1.67462 -2,-2c-3.3834,-1.24409 -7.14554,0.28695 -10.35716,0.84198c-2.36501,0.40873 -4.61921,-0.06784 -6.85792,0.07519c-0.22612,-0.6434 -0.40299,-1.27312 -0.48965,-1.87918c-0.04694,-0.32825 -0.08906,-0.6637 -0.12642,-1.00531c0.20674,-1.87046 0.14507,-3.97573 0.20134,-6.77286c0.03105,-1.54365 0.08635,-3.1733 0.14795,-4.85431c0.1544,-0.9497 0.33922,-1.8633 0.55348,-2.72033c0.46022,-1.84088 2.42411,-8.64495 1.22365,-10.64719c-0.47533,-0.7928 -0.99201,-1.55583 -1.53982,-2.29646c-0.07272,-1.91656 -0.20797,-3.76344 -0.43263,-5.48876c0.23892,-5.43245 1.95418,-10.50593 2.04738,-15.99295c0.13404,-7.89126 0.16451,-15.83255 -0.49323,-23.66019c1.10359,-0.88173 0.79389,-2.43022 0.79389,-2.43022l-0.5,-2.5c-0.71141,-3.46186 -0.24891,-6.33839 0.04003,-9.80351c0.37364,-4.48086 -0.97982,-9.15093 -0.99148,-13.7062c-0.01447,-5.65439 1.34703,-11.2834 0.46598,-16.911c0,0 -0.04849,-0.29095 -0.2121,-0.65631c0.31259,-1.69091 0.59717,-3.39114 0.82199,-5.11073c0.25927,-1.98313 -0.31617,-4.02515 0,-6c0.21727,-1.35709 0.84088,-2.63487 1,-4c0.46033,-3.94914 0.07493,-8.2334 0.07493,-12.22183c0,-2.7275 0,-5.45501 0,-8.18251c15.12289,-0.51379 32.74043,-1.03819 49.09805,-1.49552z" fill="#dcd2b4" stroke="none" stroke-width="1" stroke-linecap="butt"/><path d="" fill="#dcd2b4" stroke="none" stroke-width="1" stroke-linecap="butt"/><path d="M230.77907,372.82882c-0.26789,0.03582 -0.53721,0.07777 -0.80487,0.11267c-0.01017,-0.04341 -0.02147,-0.08639 -0.03387,-0.1289c0.27959,0.00529 0.55917,0.01069 0.83875,0.01623z" fill="#dcd2b4" stroke="none" stroke-width="1" stroke-linecap="butt"/><path d="" fill="#dcd2b4" stroke="none" stroke-width="1" stroke-linecap="butt"/><path d="" fill="#dcd2b4" stroke="none" stroke-width="1" stroke-linecap="butt"/><path d="" fill="#dcd2b4" stroke="none" stroke-width="1" stroke-linecap="butt"/><path d="" fill="#dcd2b4" stroke="none" stroke-width="1" stroke-linecap="butt"/><path d="" fill="#dcd2b4" stroke="none" stroke-width="1" stroke-linecap="butt"/><path d="M-0.0311,367.12261c0.63283,-0.001 1.28324,0.04818 1.93073,0.10602c-0.00797,0.03934 -0.01519,0.0795 -0.02164,0.12051c-0.60974,0.00228 -1.21943,0.0043 -1.82907,0.00572c-0.02595,-0.07727 -0.05265,-0.15469 -0.08001,-0.23225z" fill="#dcd2b4" stroke="none" stroke-width="1" stroke-linecap="butt"/><path d="M188.28711,258.2782c39.93679,11.62717 -137.02156,31.04697 -188.67519,36.38532c-0.08874,-2.51355 -0.22849,-5.02086 -0.4382,-7.51661c1.10359,-0.88173 0.79389,-2.43022 0.79389,-2.43022l-0.5,-2.5c-0.71141,-3.46186 -0.24891,-6.33839 0.04003,-9.80351c0.37364,-4.48086 -0.97982,-9.15093 -0.99148,-13.7062c-0.00596,-2.32768 0.22126,-4.65107 0.42923,-6.97182c74.33424,-1.25372 163.49083,-0.98317 189.34173,6.54305z" fill="#aaa082" stroke="none" stroke-width="1" stroke-linecap="butt"/><path d="" fill="#aaa082" stroke="none" stroke-width="1" stroke-linecap="butt"/><path d="" fill="#aaa082" stroke="none" stroke-width="1" stroke-linecap="butt"/><path d="" fill="#aaa082" stroke="none" stroke-width="1" stroke-linecap="butt"/><path d="" fill="#aaa082" stroke="none" stroke-width="1" stroke-linecap="butt"/><path d="" fill="#aaa082" stroke="none" stroke-width="1" stroke-linecap="butt"/><path d="M123.35303,325.91c-12.23712,1.93031 -73.02723,4.42142 -83.824,3.86653c3.69534,-7.01288 25.22394,-14.75775 38.60627,-16.52868c7.51321,-1.01576 15.14924,-0.63956 22.52622,1.10978c4.35649,1.04485 23.28182,8.7661 22.69151,11.55236z" fill="#008264" stroke="none" stroke-width="1" stroke-linecap="butt"/><path d="M36.31184,272.44564c3.40019,-18.88992 26.03857,-141.13128 41.77033,-138.00264c9.17932,1.82996 9.89359,16.71167 9.85227,24.48605c-0.05903,10.71412 -22.74464,104.0185 -25.05865,113.51659z" fill="#e6781e" stroke="none" stroke-width="1" stroke-linecap="butt"/><path d="M17.39831,272.44564c-5.5135,-23.11653 -14.04938,-59.69804 -14.04938,-65.3355c-0.02952,-5.73781 0.49586,-16.71757 7.25491,-18.08119c9.07897,-1.80044 21.25115,52.72057 27.34906,83.41669z" fill="#ffc800" stroke="none" stroke-width="1" stroke-linecap="butt"/><path d="M47.20306,263.37258c-8.47685,-0.23612 -15.4366,-0.28335 -19.93476,-13.54761c-3.95508,-11.65272 -7.89835,-25.13539 -10.20646,-38.58856c-2.57965,-15.0529 -12.39651,-65.44765 -0.53128,-79.16055c5.67878,-6.58195 12.46734,3.94327 15.10013,10.96796c4.05543,10.82038 6.68231,24.13777 8.33518,37.3371c3.31164,26.50491 5.95032,55.31204 7.2372,82.99166z" fill="#a0aa1e" stroke="none" stroke-width="1" stroke-linecap="butt"/><path d="M27.17974,272.44564c0.183,-43.56487 1.00353,-165.7413 15.30083,-165.87707c9.3328,-0.10035 13.65387,15.84392 15.00568,25.38332c1.7119,12.08955 -2.8571,114.39615 -4.03772,140.49375z" fill="#ffdc00" stroke="none" stroke-width="1" stroke-linecap="butt"/><path d="M20.93427,272.44564c-0.5608,-24.79301 0.50176,-47.97448 6.35764,-48.66514c6.8535,-0.80873 10.22417,9.56892 11.69404,15.07651c0.84414,3.17587 1.67058,17.48498 2.36124,33.58863z" fill="#f00a78" stroke="none" stroke-width="1" stroke-linecap="butt"/><path d="M287.60675,247.63492c2.57965,-0.51947 5.16521,-1.11569 7.78028,-1.44626c5.59023,-0.69066 11.21589,-0.98582 16.83564,-1.28097c11.06241,-0.58441 21.96543,-1.32229 33.05735,-1.28688c10.80857,0.03542 21.58173,-0.15938 32.39621,0.23022c11.66452,0.42502 52.30736,5.40133 60.51857,6.092c3.00176,0.25403 27.60227,4.73489 42.65639,7.24884c0,3.52792 0,8.00583 0,11.07888c0,0 0,0.48375 0.2128,1.02567c-0.00002,0.01502 -0.00004,0.03004 -0.00004,0.04507c0,1.66667 0,4.33333 0,6c0,0 0,0.46846 0.20279,0.99981c-0.1204,0.97983 -0.1967,1.96757 -0.20263,2.96852c-0.61021,2.09972 -1.11731,4.36644 -1.45353,6.05108c-0.85168,4.26739 -0.54663,8.65566 -0.54663,12.98059c0,6.33333 0,12.66667 0,19c0,0.43959 0,0.87918 0,1.31877c-0.32957,3.43815 -0.20678,7.09105 -0.09731,10.56566c-0.11448,1.04894 -0.24991,2.10152 0.08245,3.07306c0.00931,0.52195 0.01486,1.03661 0.01486,1.54251v3.5c0,0.91897 0.49584,1.72214 1.23459,2.15655c0.12568,2.2681 0.25662,4.53489 0.26541,6.84345c0.00359,0.94342 -0.06863,2.35344 0.02152,3.80483c-0.2467,0.85757 -0.44355,1.72041 -0.45114,2.60614c-0.00029,0.03438 -0.00036,0.06873 -0.0002,0.10306l-0.02163,-0.00432l-0.48987,2.44938c-0.03842,0.17418 -0.05867,0.35518 -0.05867,0.54091c0,0.81791 0.39277,1.54408 1,2.00018c0.0001,1.38063 1.11935,2.49982 2.5,2.49982c0.69435,0 1.32259,-0.28307 1.7756,-0.74011c-0.38504,1.50846 -0.85723,3.01983 -1.24332,4.83965c-0.18361,0.86546 -0.11719,1.77472 -0.02011,2.65411c0.00684,0.06189 0.03777,0.12455 0.08059,0.18674c-0.19072,0.00057 -0.38036,0.00525 -0.568,0.01815c-0.91909,-0.24431 -1.87126,-0.3656 -2.81856,-0.45002c-2.85724,-0.25463 -5.83619,-0.00852 -8.7062,-0.00852c0,0 -0.82112,0 -1.52219,0.47059c-1.16438,-0.69498 -2.17872,-1.70694 -3.47697,-2.0759c-1.76515,-0.50164 -6.52928,-0.42908 -8.89784,-0.42908c-6.33333,0 -12.66667,0 -19,0c-8,0 -16,0 -24,0c-4.68923,0 -9.9626,-0.55995 -14.60182,0.12913c-2.3661,0.35145 -4.73224,0.97182 -7.09882,1.47258c-0.27056,-1.08833 -1.25423,-1.89486 -2.42627,-1.89486v0c-9.5,0 -22,0 -31.5,0c-3.71234,0 -8.41077,-0.8057 -12.00266,0.05106c-1.13027,0.2696 -2.0941,1.03771 -3.19211,1.40822c-5.20139,-0.17622 -11.05751,-0.83151 -16.0302,-0.08809c-1.29471,-0.50993 -2.56378,-1.11969 -3.92827,-1.34703c-2.79634,-0.46591 -6.00726,-0.02416 -8.84676,-0.02416c-7.16667,0 -14.33333,0 -21.5,0c-3.74626,0 -7.47969,-0.1594 -10.94741,0.5h-1.05259v0.08027c-0.13218,-0.02141 -0.26561,-0.03761 -0.40045,-0.04799c-1.14041,-0.0878 -2.20078,0.47473 -3.26796,0.98192c-0.13912,0.02459 -0.27772,0.05056 -0.41559,0.07851l-2.36951,-1.63689c-2.77024,-0.108 -5.51924,-0.12829 -8.29057,-0.12829c-2.70997,0 -6.21093,-0.4423 -8.90046,0.03229c-3.54272,0.62514 -6.12979,1.86199 -9.8532,1.47988c-3.3423,-0.34299 -6.65446,-1.19364 -10,-1.5c-4.48083,-0.41033 -9.2446,-0.04354 -13.74634,-0.01217c-2.10316,0.01466 -4.19924,0.4947 -6.21237,1.10364c-0.5837,0.17656 -1.26576,0.13005 -1.87464,0.22803c-0.82966,-0.37811 -1.64144,-0.81563 -2.48451,-1.15286c0,0 -2.3212,-0.92848 -3.24967,1.39271c-0.01879,0.04696 -0.03624,0.09334 -0.0524,0.13916c-2.89386,-0.6593 -5.79246,-1.33243 -8.70509,-1.53193c-4.27943,-0.29312 -8.65235,-0.21136 -13.00207,-0.11596c-2.26323,-0.21612 -4.56322,-0.1845 -6.8141,0.10924c-0.12042,0.00029 -0.24077,0.00043 -0.36105,0.00043c-3.2106,0 -6.4212,0 -9.6318,0c-2.57629,-0.77895 -5.4689,-1.71333 -8.12186,-1.98783c-5.28396,-0.54674 -10.9354,-0.01217 -16.24634,-0.01217c-14.83334,0 -29.66666,0 -44.5,0c-3.83264,0 -7.66768,-0.04534 -11.5,0c-1.55597,0.01841 -3.27481,-0.60372 -4.66733,0.09071c-0.2009,0.10019 -0.39217,0.21359 -0.57542,0.33803l-0.04349,-0.07248l-2.46071,1.47643c-0.05816,0.03353 -0.11484,0.06934 -0.16993,0.1073c-1.01931,-0.27731 -2.03302,-0.60274 -3.62408,-0.89749c-6.54777,-1.21299 -15.55412,-1.53629 -22.15325,0.2602c-0.69741,-0.45968 -1.50579,-0.45968 -1.50579,-0.45968c-2,0 -7,0 -9,0c-7.33333,0 -14.66667,0 -22,0c-2,0 -4.00142,-0.07542 -6,0c-0.68356,0.0258 -1.41893,0.46975 -2.04329,0.1903c-0.86054,-0.38516 -1.11512,-1.67462 -2,-2c-3.3834,-1.24409 -7.14554,0.28695 -10.35716,0.84198c-2.36501,0.40873 -4.61921,-0.06784 -6.85792,0.07519c-0.22612,-0.6434 -0.40299,-1.27312 -0.48965,-1.87918c-0.04694,-0.32825 -0.08906,-0.6637 -0.12642,-1.00531c0.20674,-1.87046 0.14507,-3.97573 0.20134,-6.77286c0.03105,-1.54365 0.08635,-3.1733 0.14795,-4.85431c0.1544,-0.9497 0.33922,-1.8633 0.55348,-2.72033c0.46022,-1.84088 2.42411,-8.64495 1.22365,-10.64719c-0.47533,-0.7928 -0.99201,-1.55583 -1.53982,-2.29646c-0.07272,-1.91656 -0.20797,-3.76344 -0.43263,-5.48876c0.23892,-5.43245 1.95418,-10.50593 2.04738,-15.99295c0.13404,-7.89126 0.16451,-15.83255 -0.49323,-23.66019c1.10359,-0.88173 0.79389,-2.43022 0.79389,-2.43022l-0.5,-2.5c-0.71141,-3.46186 -0.24891,-6.33839 0.04003,-9.80351c0.06661,-0.79883 0.07833,-1.60368 0.05255,-2.41282c94.24584,-9.08969 286.21728,-21.99501 288.04657,-22.36544z" fill="#dcd2b4" stroke="none" stroke-width="1" stroke-linecap="butt"/><path d="" fill="#dcd2b4" stroke="none" stroke-width="1" stroke-linecap="butt"/><path d="" fill="#dcd2b4" stroke="none" stroke-width="1" stroke-linecap="butt"/><path d="" fill="#dcd2b4" stroke="none" stroke-width="1" stroke-linecap="butt"/><path d="" fill="#dcd2b4" stroke="none" stroke-width="1" stroke-linecap="butt"/><path d="" fill="#dcd2b4" stroke="none" stroke-width="1" stroke-linecap="butt"/><path d="" fill="#dcd2b4" stroke="none" stroke-width="1" stroke-linecap="butt"/><path d="" fill="#dcd2b4" stroke="none" stroke-width="1" stroke-linecap="butt"/><path d="M-0.0311,367.12261c0.63283,-0.001 1.28324,0.04818 1.93073,0.10602c-0.00797,0.03934 -0.01519,0.0795 -0.02164,0.12051c-0.60974,0.00228 -1.21943,0.0043 -1.82907,0.00572c-0.02595,-0.07727 -0.05265,-0.15469 -0.08001,-0.23225z" fill="#dcd2b4" stroke="none" stroke-width="1" stroke-linecap="butt"/><path d="" fill="#dcd2b4" stroke="none" stroke-width="1" stroke-linecap="butt"/><path d="" fill="#dcd2b4" stroke="none" stroke-width="1" stroke-linecap="butt"/><path d="" fill="#dcd2b4" stroke="none" stroke-width="1" stroke-linecap="butt"/><path d="M328.2791,356.42902c-0.17709,-0.44863 -0.28925,-0.72018 -0.44273,-1.11568l-5.73191,-0.21841c-7.51464,-3.9964 0.54899,-10.03527 6.49341,-13.27607c8.22302,-4.43913 18.15793,-5.18292 30.15893,-5.80275c11.55827,-0.59031 23.06341,-0.183 30.54854,4.33878c7.67403,4.61622 9.97624,10.56655 3.90195,15.77308c-2.16644,-0.21251 -4.13217,0.45454 -6.22187,0c-9.30328,0.90317 -19.14965,0.40141 -28.58871,0.49586c-10.02936,0.12987 -20.08825,-0.05903 -30.11761,-0.1948z" fill="#00a08c" stroke="none" stroke-width="1" stroke-linecap="butt"/><path d="M245.54716,344.46344c30.53156,-13.08496 152.17446,-15.82539 233.29398,-13.4475c0.00934,0.43808 0.06594,0.86795 0.20794,1.28305c0.00931,0.52195 0.01486,1.03661 0.01486,1.54251v3.5c0,0.91897 0.49584,1.72214 1.23459,2.15655c0.12568,2.2681 0.25662,4.53489 0.26541,6.84345c0.00359,0.94342 -0.06863,2.35344 0.02152,3.80483c-0.13566,0.47157 -0.25624,0.94473 -0.33857,1.42242c-85.40634,2.08661 -263.11821,5.07405 -234.69973,-7.1053z" fill="#aaa082" stroke="none" stroke-width="1" stroke-linecap="butt"/><path d="M186.17971,339.25101c15.64912,0.7556 31.57568,1.02124 47.22479,0.92679c32.20731,-0.183 64.52087,1.05075 96.70456,0.90908c32.47885,-0.14758 65.3414,1.85357 97.93241,2.84529c6.73329,0.20456 27.93309,1.4647 52.51737,3.03286c-0.0138,0.8897 -0.04535,2.02231 0.02663,3.18129c-0.2467,0.85757 -0.44355,1.72041 -0.45114,2.60614c-0.00029,0.03438 -0.00036,0.06873 -0.0002,0.10306l-0.02163,-0.00432l-0.48987,2.44938c-0.03842,0.17418 -0.05867,0.35518 -0.05867,0.54091c0,0.81791 0.39277,1.54408 1,2.00018c0.0001,1.38063 1.11935,2.49982 2.5,2.49982c0.12853,0 0.25479,-0.0097 0.3781,-0.02841v6.97141c-0.11841,0.00264 -0.23627,0.00749 -0.35334,0.01554c-0.91909,-0.24431 -1.87125,-0.3656 -2.81856,-0.45002c-2.85724,-0.25463 -5.83619,-0.00852 -8.7062,-0.00852c0,0 -0.82112,0 -1.52219,0.47059c-1.16438,-0.69498 -2.17872,-1.70694 -3.47697,-2.0759c-1.76515,-0.50164 -6.52928,-0.42908 -8.89784,-0.42908c-6.33333,0 -12.66667,0 -19,0c-8,0 -16,0 -24,0c-4.68923,0 -9.9626,-0.55995 -14.60182,0.12913c-2.3661,0.35145 -4.73224,0.97182 -7.09882,1.47258c-0.27056,-1.08833 -1.25423,-1.89486 -2.42627,-1.89486v0c-9.5,0 -22,0 -31.5,0c-3.71234,0 -8.41077,-0.8057 -12.00266,0.05106c-1.13027,0.2696 -2.0941,1.03771 -3.19211,1.40822c-5.20139,-0.17622 -11.05751,-0.83151 -16.0302,-0.08809c-1.29471,-0.50993 -2.56378,-1.11969 -3.92827,-1.34703c-2.79634,-0.46591 -6.00726,-0.02416 -8.84676,-0.02416c-7.16667,0 -14.33333,0 -21.5,0c-3.74626,0 -7.47969,-0.1594 -10.94741,0.5h-1.05259v0.08027c-0.13218,-0.02141 -0.26561,-0.03761 -0.40045,-0.04799c-1.14041,-0.0878 -2.20078,0.47473 -3.26796,0.98192c-0.13912,0.02459 -0.27772,0.05056 -0.41559,0.07851l-2.36951,-1.63689c-2.77024,-0.108 -5.51924,-0.12829 -8.29057,-0.12829c-2.70997,0 -6.21093,-0.4423 -8.90046,0.03229c-3.54272,0.62514 -6.12979,1.86199 -9.8532,1.47988c-3.3423,-0.34299 -6.65446,-1.19364 -10,-1.5c-4.48083,-0.41033 -9.2446,-0.04354 -13.74634,-0.01217c-2.10316,0.01466 -4.19924,0.4947 -6.21237,1.10364c-0.5837,0.17656 -1.26576,0.13005 -1.87464,0.22803c-0.82966,-0.37811 -1.64144,-0.81563 -2.48451,-1.15286c0,0 -2.3212,-0.92848 -3.24967,1.39271c-0.01879,0.04696 -0.03624,0.09334 -0.0524,0.13916c-2.89386,-0.6593 -5.79246,-1.33243 -8.70509,-1.53193c-4.27943,-0.29312 -8.65235,-0.21136 -13.00207,-0.11596c-2.26323,-0.21612 -4.56322,-0.1845 -6.8141,0.10924c-0.12042,0.00029 -0.24077,0.00043 -0.36105,0.00043c-3.2106,0 -6.4212,0 -9.6318,0c-2.57629,-0.77895 -5.4689,-1.71333 -8.12186,-1.98783c-5.28396,-0.54674 -10.9354,-0.01217 -16.24634,-0.01217c-14.83334,0 -29.66666,0 -44.5,0c-3.83264,0 -7.66768,-0.04534 -11.5,0c-1.55597,0.01841 -3.27481,-0.60372 -4.66733,0.09071c-0.2009,0.10019 -0.39217,0.21359 -0.57542,0.33803l-0.04349,-0.07248l-2.46071,1.47643c-0.05816,0.03353 -0.11484,0.06934 -0.16993,0.1073c-1.01931,-0.27731 -2.03302,-0.60274 -3.62408,-0.89749c-6.54777,-1.21299 -15.55412,-1.53629 -22.15325,0.2602c-0.69741,-0.45968 -1.50579,-0.45968 -1.50579,-0.45968c-2,0 -7,0 -9,0c-7.33333,0 -14.66667,0 -22,0c-2,0 -4.00142,-0.07542 -6,0c-0.68356,0.0258 -1.41893,0.46975 -2.04329,0.1903c-0.86054,-0.38516 -1.11512,-1.67462 -2,-2c-3.3834,-1.24409 -7.14554,0.28695 -10.35716,0.84198c-2.36501,0.40873 -4.61921,-0.06784 -6.85792,0.07519c-0.22612,-0.6434 -0.40299,-1.27312 -0.48965,-1.87918c-0.04694,-0.32825 -0.08906,-0.6637 -0.12642,-1.00531c0.20674,-1.87046 0.14507,-3.97573 0.20134,-6.77286c0.03105,-1.54365 0.08635,-3.1733 0.14795,-4.85431c0.1544,-0.9497 0.33922,-1.8633 0.55348,-2.72033c0.46022,-1.84088 2.42411,-8.64495 1.22365,-10.64719c-0.47533,-0.7928 -0.99201,-1.55583 -1.53982,-2.29646c-0.00226,-0.05974 -0.00459,-0.11941 -0.00698,-0.17901c63.13983,2.36612 183.9965,6.94351 188.13449,7.14121z" fill="#dcd2b4" stroke="none" stroke-width="1" stroke-linecap="butt"/><path d="" fill="#dcd2b4" stroke="none" stroke-width="1" stroke-linecap="butt"/><path d="M230.77907,372.82882c-0.26789,0.03582 -0.53721,0.07777 -0.80487,0.11267c-0.01017,-0.04341 -0.02147,-0.08639 -0.03387,-0.1289c0.27959,0.00529 0.55917,0.01069 0.83875,0.01623z" fill="#dcd2b4" stroke="none" stroke-width="1" stroke-linecap="butt"/><path d="" fill="#dcd2b4" stroke="none" stroke-width="1" stroke-linecap="butt"/><path d="" fill="#dcd2b4" stroke="none" stroke-width="1" stroke-linecap="butt"/><path d="" fill="#dcd2b4" stroke="none" stroke-width="1" stroke-linecap="butt"/><path d="" fill="#dcd2b4" stroke="none" stroke-width="1" stroke-linecap="butt"/><path d="" fill="#dcd2b4" stroke="none" stroke-width="1" stroke-linecap="butt"/><path d="M-0.0311,367.12261c0.63283,-0.001 1.28324,0.04818 1.93073,0.10602c-0.00797,0.03934 -0.01519,0.0795 -0.02164,0.12051c-0.60974,0.00228 -1.21943,0.0043 -1.82907,0.00572c-0.02595,-0.07727 -0.05265,-0.15469 -0.08001,-0.23225z" fill="#dcd2b4" stroke="none" stroke-width="1" stroke-linecap="butt"/><path d="" fill="#dcd2b4" stroke="none" stroke-width="1" stroke-linecap="butt"/><path d="" fill="#dcd2b4" stroke="none" stroke-width="1" stroke-linecap="butt"/><path d="M483.59624,364.44104c-0.04778,0.22522 -0.07863,0.4534 -0.09641,0.68325h-17.42524c-2.03804,-0.37836 -6.23274,-0.31718 -8.40763,-0.31718c-6.33333,0 -12.66667,0 -19,0c-8,0 -16,0 -24,0c-4.68923,0 -9.9626,-0.55995 -14.60182,0.12913c-0.37914,0.05631 -0.75828,0.11953 -1.13742,0.18806h-6.75078c-0.43858,-0.38024 -1.01086,-0.61033 -1.63688,-0.61033v0c-9.5,0 -22,0 -31.5,0c-3.71234,0 -8.41077,-0.8057 -12.00266,0.05106c-0.49041,0.11698 -0.94948,0.3278 -1.40178,0.55927h-19.70922c-0.66566,-0.25257 -1.34008,-0.46963 -2.03958,-0.58617c-2.79634,-0.46591 -6.00726,-0.02416 -8.84676,-0.02416c-6.15981,0 -12.31961,0 -18.47942,0l182.50333,-29.40023v2.22776c0,0.91897 0.49584,1.72214 1.23459,2.15655c0.12568,2.2681 0.25662,4.53489 0.26541,6.84345c0.00359,0.94342 -0.06863,2.35344 0.02152,3.80483c-0.2467,0.85757 -0.44355,1.72041 -0.45114,2.60614c-0.00029,0.03438 -0.00036,0.06873 -0.0002,0.10306l-0.02163,-0.00432l-0.48987,2.44938c-0.03842,0.17418 -0.05867,0.35518 -0.05867,0.54091c0,0.81791 0.39277,1.54408 1,2.00018c0.0001,1.38063 1.11935,2.49982 2.5,2.49982c0.69435,0 1.32259,-0.28307 1.7756,-0.74011c-0.38504,1.50846 -0.85723,3.01983 -1.24332,4.83965z" fill="#aaa082" stroke="none" stroke-width="1" stroke-linecap="butt"/><path d="" fill="#aaa082" stroke="none" stroke-width="1" stroke-linecap="butt"/><path d="" fill="#aaa082" stroke="none" stroke-width="1" stroke-linecap="butt"/><path d="M362.96571,331.35856c-7.25491,-5.18882 0,-10.57245 6.00935,-11.84162c7.20768,-1.51119 14.75775,1.18062 21.40464,3.8016c2.32582,0.92088 6.77676,2.8571 5.66698,6.06839c-1.10978,3.21129 -5.9031,3.57728 -8.67756,3.9964c-7.63271,1.1393 -17.5204,2.30221 -24.40341,-2.02476z" fill="#f0e6d2" stroke="none" stroke-width="1" stroke-linecap="butt"/><path d="M426.3945,345.5201c6.79447,-35.4304 19.616,-74.13702 28.15188,-73.32829c9.98804,0.9445 11.60549,16.74709 12.0069,25.01143c0.23022,4.78741 -2.96926,25.36561 -6.91253,48.47034z" fill="#64be96" stroke="none" stroke-width="1" stroke-linecap="butt"/><path d="M469.30413,302.29761c5.15541,0.48751 8.08074,4.93351 9.75982,10.25816c0,1.59524 0,3.19048 0,4.78572c0,0.43959 0,0.87918 0,1.31877c-0.32957,3.43815 -0.20678,7.09105 -0.09731,10.56566c-0.11448,1.04894 -0.24991,2.10152 0.08245,3.07306c0.00931,0.52195 0.01486,1.03661 0.01486,1.54251v3.5c0,0.86175 0.43601,1.62166 1.09946,2.07117c-0.97253,7.19265 -2.4826,16.78058 -4.2414,27.3376c-1.4607,0.0297 -2.923,0.09123 -4.35806,0.09123c0,0 -0.82112,0 -1.52219,0.47059c-1.16438,-0.69498 -2.17872,-1.70694 -3.47697,-2.0759c-1.76515,-0.50164 -6.52928,-0.42908 -8.89784,-0.42908c-4.75871,0 -9.51741,0 -14.27612,0c7.10843,-32.0449 18.24172,-63.23634 25.9133,-62.50949z" fill="#00a0b4" stroke="none" stroke-width="1" stroke-linecap="butt"/><path d="M424.44058,361.22824c2.55604,-14.17334 19.51565,-105.83666 31.32184,-103.47542c6.88301,1.36952 7.39068,12.53228 7.39068,18.35864c-0.04722,8.03412 -17.02454,77.99764 -18.79547,85.11678z" fill="#fab414" stroke="none" stroke-width="1" stroke-linecap="butt"/><path d="M394.50596,301.07567c-0.02361,-4.32107 0.37189,-12.56179 5.45446,-13.57713c6.34936,-1.26325 20.91063,51.5907 26.52943,77.30856c-3.94097,0 -7.88193,0 -11.8229,0c-1.99387,0 -4.09334,-0.10124 -6.20476,-0.16465c-4.72997,-19.98454 -13.93462,-59.61292 -13.95623,-63.56678z" fill="#008264" stroke="none" stroke-width="1" stroke-linecap="butt"/><path d="M438.47224,361.21053c4.89957,-22.19565 11.8121,-48.06303 17.23705,-46.98867c5.08257,1.03304 5.45446,9.27377 5.45446,13.57713c-0.01181,3.08732 -3.4238,18.55934 -6.87121,33.42925z" fill="#281446" stroke="none" stroke-width="1" stroke-linecap="butt"/><path d="M432.59866,354.42787c-6.35764,-0.17709 -11.57598,-0.21251 -14.95255,-10.15923c-2.95155,-8.73659 -5.9031,-18.84859 -7.67403,-28.92518c-1.93622,-11.28672 -9.27377,-49.07246 -0.40141,-59.35566c4.26204,-4.93499 9.35051,2.95155 11.32214,8.22302c3.0401,8.11676 5.01173,18.0989 6.25138,27.9984c2.52062,19.86393 4.49816,41.46337 5.45446,62.21866z" fill="#ffdc00" stroke="none" stroke-width="1" stroke-linecap="butt"/><path d="M417.59298,361.20463c0.14167,-32.66775 1.47577,-125.87177 12.1958,-125.97213c6.98927,-0.04132 9.5217,13.50629 10.53113,20.66085c1.28097,9.05535 -2.13102,85.76612 -3.02829,105.33489z" fill="#e6781e" stroke="none" stroke-width="1" stroke-linecap="butt"/><path d="M378.41411,297.41575c6.76495,-1.79454 12.55589,10.71412 15.30083,17.39643c1.80002,4.38135 6.86024,26.6545 11.87349,49.78031c-1.88834,-0.00038 -3.75204,0.08065 -5.5233,0.34374c-2.3661,0.35145 -4.73224,0.97182 -7.09882,1.47258c-0.27056,-1.08833 -1.25423,-1.89486 -2.42627,-1.89486v0c-1.08432,0 -5.16864,0 -6.25296,0c-6.86703,-32.86204 -12.02254,-65.4687 -5.87297,-67.09821z" fill="#e6781e" stroke="none" stroke-width="1" stroke-linecap="butt"/><path d="M418.93888,309.17472c10.14263,-0.71963 9.45511,38.2191 9.51495,55.63239c-4.59562,0 -9.19125,0 -13.78688,0c-0.91415,0 -1.8505,-0.02128 -2.80003,-0.05044c-0.80144,-19.93984 -3.55406,-54.82801 7.07196,-55.58195z" fill="#ffc800" stroke="none" stroke-width="1" stroke-linecap="butt"/><path d="M393.19548,317.09668c4.23843,-4.93499 9.35051,2.95745 11.32214,8.22892c3.0401,8.11086 5.01173,18.0989 6.25138,27.99249c0.47404,3.75908 0.92726,7.58065 1.35842,11.44637c-3.9976,-0.11652 -8.24466,-0.39528 -12.06229,0.17177c-2.3661,0.35145 -4.73224,0.97182 -7.09882,1.47258c-0.18207,-0.73239 -0.68709,-1.33717 -1.35513,-1.65442c-2.50369,-15.88356 -5.18183,-39.79998 1.5843,-47.65771z" fill="#f00a78" stroke="none" stroke-width="1" stroke-linecap="butt"/><path d="M11.50702,345.89199c5.18882,0.14167 10.39536,1.64696 15.4366,2.78036c4.25613,0.9563 21.48138,9.98804 27.34315,13.09898h-38.6068c-0.11486,-0.09444 -0.24088,-0.17171 -0.3832,-0.22405c-2.42977,-0.89344 -5.05488,-0.35565 -7.53114,0.22405h-9.90827c-0.11806,-0.40326 -0.21005,-0.79947 -0.26533,-1.18606c-0.04694,-0.32825 -0.08906,-0.6637 -0.12642,-1.00531c0.20674,-1.87046 0.14507,-3.97573 0.20134,-6.77286c0.02625,-1.30489 0.06982,-2.67125 0.11989,-4.07813c4.17347,-2.06897 9.2085,-2.95704 13.72019,-2.83698z" fill="#f0e6d2" stroke="none" stroke-width="1" stroke-linecap="butt"/><path d="M100.70874,348.05253c7.63271,-0.20071 17.5322,-0.31877 23.82491,4.72248c3.33352,2.68214 5.13335,6.15702 5.29485,9.73895c-8.92948,0 -17.85897,0 -26.78845,0c-3.83264,0 -7.66768,-0.04534 -11.5,0c-1.55597,0.01841 -3.27481,-0.60372 -4.66733,0.09071c-0.2009,0.10019 -0.39217,0.21359 -0.57542,0.33803l-0.04349,-0.07248l-2.46071,1.47643c-0.05816,0.03353 -0.11484,0.06934 -0.16993,0.1073c-1.01931,-0.27731 -2.03302,-0.60274 -3.62408,-0.89749c-5.10666,-0.94602 -11.70878,-1.35089 -17.49808,-0.63105c7.76907,-11.29658 25.58949,-14.54589 38.20772,-14.87289z" fill="#8c8264" stroke="none" stroke-width="1" stroke-linecap="butt"/><path d="M64.17445,349.07967c0.32667,1.20293 0.13395,2.48772 -0.53128,3.54186c-4.26204,0.55489 -8.63033,0.12396 -12.78021,0.14758c-0.85729,-0.2709 -1.47926,-1.01496 -1.59384,-1.9067c1.93031,-6.26319 11.32805,-6.87121 14.90533,-1.78274z" fill="#f0e6d2" stroke="none" stroke-width="1" stroke-linecap="butt"/><path d="M463.17671,204.04053c0.30106,1.58203 0.34828,3.02829 -0.69066,4.62803c-5.53711,0.71427 -11.21589,0.15938 -16.62313,0.1889c-1.11642,-0.35467 -1.92656,-1.32362 -2.07789,-2.4852c2.51472,-8.15808 14.74594,-8.955 19.39168,-2.33172z" fill="#aaa082" stroke="none" stroke-width="1" stroke-linecap="butt"/><path d="M104.66695,355.8071l110,-164l13,166z" fill="#000000" stroke="#000000" stroke-width="10" stroke-linecap="round"/><path d="M307.66695,148.8071l172,-2" fill="none" stroke="#000000" stroke-width="10" stroke-linecap="round"/><path d="M-64.33305,18.8071l133,100" fill="none" stroke="#000000" stroke-width="10" stroke-linecap="round"/><path d="M-2.46824,358.86072l486.71357,2.94383" fill="none" stroke="#000000" stroke-width="10" stroke-linecap="round"/><path d="M377.66695,302.8071l-158,-122" fill="none" stroke="#000000" stroke-width="10" stroke-linecap="round"/></g></g></svg>